	<svg xmlns="http://www.w3.org/2000/svg" xmlns:xlink="http://www.w3.org/1999/xlink" version="1.1" width="128" height="128" viewBox="0 0 100 100">


		<defs>
			<g id="background">
<path fill="url(#background-gradient)" stroke="none" d=" M 85.3 83.5 Q 97.55 70.4 97.55 51.4 97.55 32.3 85.3 19.25 72.95 5.95 54.35 5.95 35.65 5.95 22.5 19.25 9.25 32.5 9.25 51.4 9.25 70.2 22.5 83.5 35.65 96.85 54.35 96.85 72.95 96.85 85.3 83.5 Z"/>
</g><mask id="mask">
<path fill="#FFFFFF" stroke="none" d=" M 82.6 83.1 Q 96.25 69.35 96.25 50 96.25 30.7 82.6 16.95 68.95 3.2 49.75 3.2 30.55 3.2 16.85 16.95 3.2 30.7 3.2 50 3.2 69.35 16.85 83.1 30.55 96.85 49.75 96.85 68.95 96.85 82.6 83.1 Z"/>
</mask><g id="bottom-1">
<path fill="#1C395D" fill-opacity="1" stroke="none" d=" M 89.55 2.8 Q 90.05 2.4 90.05 1.7 90.05 1 89.55 0.6 89.05 0.1 88.45 0.1 L 53.1 0.1 Q 51.4556640625 0 49.75 0 29.15 0 14.55 14.6 0 29.25 0 50 0 70.7 14.55 85.35 29.15 100 49.75 100 65.98515625 100 78.45 90.9 L 89.95 90.9 Q 91.55 90.9 91.55 89.35 91.55 87.75 89.95 87.75 L 82.35 87.75 Q 83.6546875 86.60390625 84.9 85.35 99.5 70.7 99.5 50 99.5 31.9732421875 88.45 18.55 L 96.65 18.55 Q 98.3 18.55 98.3 16.95 98.3 15.35 96.65 15.35 L 85.6 15.35 Q 85.271875 14.973046875 84.9 14.6 77.267578125 6.94140625 67.95 3.3 L 88.45 3.3 Q 89.05 3.3 89.55 2.8 M 96.25 50 Q 96.25 69.35 82.6 83.1 68.95 96.85 49.75 96.85 30.55 96.85 16.85 83.1 3.2 69.35 3.2 50 3.2 30.7 16.85 16.95 30.55 3.2 49.75 3.2 68.95 3.2 82.6 16.95 96.25 30.7 96.25 50 M 98.4 0.1 L 95.55 0.1 Q 94.95 0.1 94.55 0.6 94.05 1 94.05 1.7 94.05 2.4 94.55 2.8 94.95 3.3 95.55 3.3 L 98.4 3.3 Q 100 3.3 100 1.7 100 0.1 98.4 0.1 M 97.9 87.75 L 96.15 87.75 Q 94.55 87.75 94.55 89.25 L 94.55 89.35 Q 94.55 90.9 96.15 90.9 L 97.9 90.9 Q 98.6 90.9 99 90.5 99.5 90 99.5 89.35 99.5 87.75 97.9 87.75 Z"/>
</g>
			
	<linearGradient id="background-gradient" x1="0" y1="0" y2="1" x2="0" >
		<stop stop-color="#3FB3C0" offset="0%"/>
		<stop stop-color="#3FB3C0" offset="100%"/>
	</linearGradient>

			
			
			<g transform="scale(3.3333333333333335)" id="picture"><path d="M12.5 11.1c-.3 0-.5-.2-.5-.5 0-.9 1.3-1.6 3-1.6s3 .7 3 1.6c0 .3-.2.5-.5.5s-.5-.2-.5-.5c0-.2-.8-.6-2-.6-1.3 0-2 .4-2 .6 0 .3-.2.5-.5.5zM15 7.9L3 7.3c-.2 0-.3-.1-.4-.3-.1-.2-.1-.4 0-.5C5.4 2.4 10 0 15 0s9.6 2.4 12.4 6.6c.1.1.1.3 0 .5s-.2.3-.4.3l-12 .5zM4 6.4l11 .5 11-.6C23.4 3 19.3 1 15 1S6.6 3 4 6.4zM15 30C6.7 30 0 23.3 0 15c0-1.1.1-2.2.4-3.3.1-.3.3-.4.6-.4.3.1.4.3.4.6C1.1 13 1 14 1 15c0 7.7 6.3 14 14 14s14-6.3 14-14c0-1-.1-2-.4-3.1-.1-.3.1-.5.4-.6.3-.1.5.1.6.4.3 1.1.4 2.2.4 3.3 0 8.3-6.7 15-15 15z M5.5 16C2.6 16 0 13.2 0 10V8.7c0-1 1.4-2.4 2.4-2.4L15 7c.3 0 .5.3.5.5 0 .3-.3.5-.5.5l-1.4-.1c-.3 4.4-3.9 8.1-8.1 8.1zM2.4 7.3C2 7.3 1 8.3 1 8.7V10c0 2.4 1.9 5 4.5 5 3.7 0 6.9-3.3 7.1-7.1L2.4 7.3z M24.4 16c-4.2 0-7.8-3.7-8-8.1L15 8c-.3 0-.5-.2-.5-.5 0-.2.2-.5.5-.5l12.6-.7c1 0 2.4 1.4 2.4 2.4V10c0 3.1-2.7 6-5.6 6zm-7-8.1c.2 3.8 3.4 7.1 7 7.1 2.4 0 4.6-2.4 4.6-5V8.7c0-.4-1-1.4-1.4-1.4l-10.2.6zM15.3 24c-3.1 0-5.9-1.6-7.6-4.1-.1-.2-.1-.5.2-.7.2-.2.5-.2.7.1 1.5 2.3 4 3.7 6.7 3.7 2.8 0 5.3-1.4 6.8-3.7.1-.2.5-.3.7-.2.2.1.3.5.2.7-1.7 2.6-4.6 4.2-7.7 4.2z"/></g>
			
	<linearGradient id="picture-gradient" x1="0" y1="0" y2="1" x2="0" >
		<stop stop-color="#4b6991" offset="0%"/>
		<stop stop-color="#223343" offset="100%"/>
	</linearGradient>

		</defs>

		

			<use xlink:href="#background" fill="url(#background-gradient)" />

		

			<g mask="url(#mask)">
				<g transform="
				        translate(
                                50 50
)
                            translate(0 0)  scale(0.6)  
                            translate(
                                -50 -50
)">
						<use xlink:href="#picture" fill="url(#picture-gradient)"  />
				</g>
			</g>

		<use xlink:href="#bottom-1" />



	</svg>

